# xmcd
#
# Track frame offsets:
#	150
#	16501
#	37925
#	55113
#	83552
#	104471
#	122567
#	136166
#	156437
#	173919
#	198354
#	218118
#	244869
#	260315
#
# Disc length: 4125 seconds
#
# Revision: 1
# Processed by: cddbd v1.5.2PL0 Copyright (c) Steve Scherf et al.
# Submitted via: audiograbber 1.83.01
#
DISCID=ae101b0e
DTITLE=Homonica Man Petrovich and The Bluesmakers - Live
DYEAR=2007
DGENRE=Blues
TTITLE0=One More Time
TTITLE1=Whoe-Yeah
TTITLE2=Alabama Train
TTITLE3=Lookin' for Somebody
TTITLE4=You Gotta Move
TTITLE5=Boom Boom Boom
TTITLE6=Riot In Cellblock 9
TTITLE7=Train Time
TTITLE8=Mystery Train
TTITLE9=Louise
TTITLE10=You Better Watch Yourself
TTITLE11=I Left My Baby
TTITLE12=Mississippi Kid
TTITLE13=Every Day I Have The Blues
EXTD=
EXTT0=
EXTT1=
EXTT2=
EXTT3=
EXTT4=
EXTT5=
EXTT6=
EXTT7=
EXTT8=
EXTT9=
EXTT10=
EXTT11=
EXTT12=
EXTT13=
PLAYORDER=
